<?xml version="1.0" encoding="UTF-8"?>
<svg width="454px" height="486px" viewBox="0 0 454 486" version="1.1" xmlns="http://www.w3.org/2000/svg" xmlns:xlink="http://www.w3.org/1999/xlink">
    <!-- Generator: Sketch 64 (93537) - https://sketch.com -->
    <title>icon-7</title>
    <desc>Created with Sketch.</desc>
    <g id="Page-1" stroke="none" stroke-width="1" fill="none" fill-rule="evenodd">
        <g id="icon-7" transform="translate(3.000000, 3.000000)" fill="#131419" fill-rule="nonzero" stroke="#131419">
            <path d="M444.68,33.512 C442.596453,32.0093496 439.918052,31.5986615 437.48,32.408 L376.56,52.712 C362.565474,20.6961853 330.940795,0.00581547064 296,0.00581547064 C261.059205,0.00581547064 229.434526,20.6961853 215.44,52.712 L154.528,32.408 L154.528,32.456 C152.895211,31.8921375 151.123216,31.8752881 149.48,32.408 L5.48,80.408 C2.20849651,81.4937998 0,84.5530163 0,88 L0,472 C0,476.418278 3.581722,480 8,480 C8.85899701,479.999242 9.71237811,479.861513 10.528,479.592 L152,432.432 L293.472,479.592 L293.472,479.592 C295.111681,480.146758 296.888319,480.146758 298.528,479.592 L442.528,431.592 C445.796342,430.503425 448,427.444859 448,424 L448,40 C448,37.4295541 446.764717,35.0157109 444.68,33.512 Z M296,16 C335.7444,16.0484876 367.951512,48.2555996 368,88 C368,118.984 320.584,182.192 296,211.664 C271.408,182.2 224,119 224,88 C224.048488,48.2555996 256.2556,16.0484876 296,16 Z M16,460.904 L16,365.768 L25.704,362.568 C28.4192186,361.666262 30.4471125,359.384469 31.0237935,356.582152 C31.6004745,353.779834 30.6383311,350.882731 28.4997934,348.982152 C26.3612557,347.081573 23.3712185,346.466261 20.656,347.368 L16,348.904 L16,93.768 L144,51.096 L144,306.232 L142.08,306.872 C138.431684,308.035576 136.128934,311.631999 136.598849,315.432433 C137.068764,319.232867 140.178147,322.160092 144,322.4 L144,418.232 L16,460.904 Z M304,460.904 L304,365.768 L313.704,362.568 C316.419219,361.666262 318.447112,359.384469 319.023793,356.582152 C319.600474,353.779834 318.638331,350.882731 316.499793,348.982152 C314.361256,347.081573 311.371219,346.466261 308.656,347.368 L304,348.904 L304,256 C304,251.581722 300.418278,248 296,248 C291.581722,248 288,251.581722 288,256 L288,349.552 C284.192372,349.831511 281.112864,352.762613 280.645783,356.551807 C280.178702,360.341001 282.454229,363.9322 286.08,365.128 L288,365.768 L288,460.896 L160,418.232 L160,323.096 L164.656,324.648 C168.853364,326.041966 173.386033,323.769364 174.78,319.572 C176.173966,315.374636 173.901364,310.841967 169.704,309.448 L160,306.232 L160,51.104 L210.4,67.904 C208.825986,74.4873931 208.020608,81.2310887 208,88 C208,134.648 286.624,225.416 289.968,229.256 C291.487313,230.999958 293.687058,232.001005 296,232.001005 C298.312942,232.001005 300.512687,230.999958 302.032,229.256 C305.376,225.416 384,134.648 384,88 C383.979392,81.2310887 383.174014,74.4873931 381.6,67.904 L432,51.104 L432,306.232 L430.08,306.872 C426.431684,308.035576 424.128934,311.631999 424.598849,315.432433 C425.068764,319.232867 428.178147,322.160092 432,322.4 L432,418.232 L304,460.904 Z" id="Shape" stroke-width="6"></path>
            <path d="M328,80 C328,62.326888 313.673112,48 296,48 C278.326888,48 264,62.326888 264,80 C264,97.673112 278.326888,112 296,112 C313.673112,112 328,97.673112 328,80 Z M280,80 C280,71.163444 287.163444,64 296,64 C304.836556,64 312,71.163444 312,80 C312,88.836556 304.836556,96 296,96 C287.163444,96 280,88.836556 280,80 Z" id="Shape" stroke-width="5"></path>
            <path d="M399.728,316.992 L384.528,322.048 C381.812781,322.951167 379.78565,325.23428 379.210207,328.037312 C378.634763,330.840344 379.598431,333.737448 381.738207,335.637312 C383.877982,337.537177 386.868781,338.151168 389.584,337.248 L404.784,332.184 C408.981364,330.787824 411.252176,326.253364 409.856,322.056 C408.459824,317.858636 403.925364,315.587824 399.728,316.984 L399.728,316.992 Z" id="Path" stroke-width="5"></path>
            <path d="M354.184,332.168 L338.984,337.232 C334.786636,338.628176 332.515824,343.162636 333.912,347.36 C335.308176,351.557364 339.842636,353.828176 344.04,352.432 L359.24,347.376 C363.437364,345.979824 365.708176,341.445364 364.312,337.248 C362.915824,333.050636 358.381364,330.779824 354.184,332.176 L354.184,332.168 Z" id="Path" stroke-width="5"></path>
            <path d="M260.8,339.832 L245.6,334.768 C241.402636,333.371824 236.868176,335.642636 235.472,339.84 C234.075824,344.037364 236.346636,348.571824 240.544,349.968 L255.744,355.024 C259.941364,356.420176 264.475824,354.149364 265.872,349.952 C267.268176,345.754636 264.997364,341.220176 260.8,339.824 L260.8,339.832 Z" id="Path" stroke-width="5"></path>
            <path d="M215.24,324.648 L200.04,319.592 C197.324781,318.688833 194.333982,319.302823 192.194207,321.202688 C190.054432,323.102552 189.090763,325.999656 189.666207,328.802688 C190.24165,331.60572 192.268781,333.888833 194.984,334.792 L210.184,339.856 C212.899219,340.759167 215.890018,340.145177 218.029793,338.245312 C220.169568,336.345448 221.133237,333.448344 220.557793,330.645312 C219.98235,327.84228 217.955219,325.559167 215.24,324.656 L215.24,324.648 Z" id="Path" stroke-width="5"></path>
            <path d="M111.728,316.992 L96.528,322.048 C93.8127815,322.951167 91.7856503,325.23428 91.2102069,328.037312 C90.6347636,330.840344 91.5984318,333.737448 93.7382069,335.637312 C95.8779821,337.537177 98.8687815,338.151167 101.584,337.248 L116.784,332.184 C120.981364,330.787824 123.252176,326.253364 121.856,322.056 C120.459824,317.858636 115.925364,315.587824 111.728,316.984 L111.728,316.992 Z" id="Path" stroke-width="5"></path>
            <path d="M66.184,332.168 L50.984,337.232 C48.2687814,338.135167 46.2416501,340.41828 45.6662067,343.221312 C45.0907633,346.024344 46.0544315,348.921448 48.1942067,350.821312 C50.333982,352.721177 53.3247815,353.335168 56.04,352.432 L71.24,347.376 C75.437364,345.979824 77.7081756,341.445364 76.3119997,337.248 C74.9158239,333.050636 70.381364,330.779824 66.184,332.176 L66.184,332.168 Z" id="Path" stroke-width="5"></path>
        </g>
    </g>
</svg>