<svg xmlns="http://www.w3.org/2000/svg" width="800" height="200" version="1.1"><path fill="#000" d="M65.25,115l-2.875-12s-5.875-2-14-2c-13.125,0-20.625,9.75-20.625,30.625c0,20.25,8.125,28.75,21.25,28.75c12.5,0,23.75-8.75,23.75-8.75l6.875,11.25s-13.125,13.625-32.75,13.625c-25.375,0-40-15.25-40-44.25c0-29.375,16.5-46.875,42.125-46.875c15.125,0,29.125,5.875,29.125,5.875l-0.625,23.75l-12.25,0z M130.18875,106.25c20.25,0,31.5,12.25,31.5,33.75c0,22.5-13.125,36.25-33.375,36.25c-20.375,0-31.875-10.625-31.875-34.375c0-22.5,13.375-35.625,33.75-35.625z M129.56375,121.25c-9.125,0-13.75,5-13.75,20c0,13.75,4,20,13.125,20c9,0,13.375-5.625,13.375-20.625c0-12.75-3.75-19.375-12.75-19.375z M225.3775,175l-1.125-6.625c-1.75,1.75-8.125,7.875-18.875,7.875c-17.5,0-25.625-12.75-25.625-33.375c0-23.5,11.25-36.625,34.125-36.625c3,0,6.625,0.625,9.375,1.25l0-15.875l-10-2.5l0-10l28.75-1l0,83.5l10,2.5l0,10z M223.2525,154.125l0-31c-2.375-1.125-6.125-1.875-9.75-1.875c-10.625,0-14.375,8.125-14.375,20.625c0,12.625,3.5,19.375,12,19.375c8,0,12.125-7.125,12.125-7.125z M328.56625,145.375l-41.5,0c0.75,10,6.5,15.875,15.125,15.875c10.375,0,21-5.875,21-5.875l5.375,10.375s-12.5,10.5-28.5,10.5c-21.5,0-32.5-12.5-32.5-33.75c0-21.875,12.375-36.25,33.375-36.25c18.625,0,28.375,11.5,28.375,29.375c0,4.75-0.75,9.375-0.75,9.75z M287.31625,133.75l22.625,0c0-7.125-3-12.5-10.25-12.5c-7,0-11.375,5.125-12.375,12.5z M373.005,107.5l1.125,8.625s9-9.875,17.375-9.875c6.875,0,11.625,2.25,11.625,2.25l-1,24l-11.25,0l-1.875-10.625c-7.25,0-13.5,7-13.5,7l0,33l12.5,3.125l0,10l-41.25,0l0-10l10-3.125l0-40.625l-10-3.125l0-10z M505.31875,164.375l0,10.625l-39.75,0l0-10.625l9.375-3.375l-3-9.125l-27.75,0l-3.125,9l9.75,3.5l0,10.625l-37.75,0l0-10.625l9.125-3.5l27.5-73.625l20-0.375l26.875,74z M467.81875,138.5l-9.375-29.625l-9.875,29.625l19.25,0z M546.0075,161.875l11.25,3.125l0,10l-40.125,0l0-10l10-3.125l0-70.25l-10-2.5l0-10l28.875-1l0,83.75z M597.94625,161.875l11.25,3.125l0,10l-40.125,0l0-10l10-3.125l0-70.25l-10-2.5l0-10l28.875-1l0,83.75z M683.885,145.375l-41.5,0c0.75,10,6.5,15.875,15.125,15.875c10.375,0,21-5.875,21-5.875l5.375,10.375s-12.5,10.5-28.5,10.5c-21.5,0-32.5-12.5-32.5-33.75c0-21.875,12.375-36.25,33.375-36.25c18.625,0,28.375,11.5,28.375,29.375c0,4.75-0.75,9.375-0.75,9.75z M642.635,133.75l22.625,0c0-7.125-3-12.5-10.25-12.5c-7,0-11.375,5.125-12.375,12.5z M728.57375,107.5l0.875,8.625s11.875-9.625,23-9.625c12.125,0,19,8.625,19,22.25l0,33.125l8.75,3.125l0,10l-34.375,0l0-10l6.875-3.125l0-29.75c0-5.75-3.25-10-8.5-10c-7.75,0-13.375,7.125-13.375,7.125l0,32.625l6.875,3.125l0,10l-35.625,0l0-10l10-3.125l0-40.625l-10-3.125l0-10z"/><path fill="#"/></svg>