<?xml version="1.0" encoding="UTF-8"?>
<svg width="1156px" height="190px" viewBox="0 0 1156 190" version="1.1" xmlns="http://www.w3.org/2000/svg" xmlns:xlink="http://www.w3.org/1999/xlink">
    <!-- Generator: Sketch 64 (93537) - https://sketch.com -->
    <title>Artboard</title>
    <desc>Created with Sketch.</desc>
    <g id="Artboard" stroke="none" stroke-width="1" fill="none" fill-rule="evenodd">
        <path d="M106.656894,187.43738 L106.656894,41.0019268 L163.100748,41.0019268 L163.100748,0 L0,0 L0,41.0019268 L56.4438545,41.0019268 L56.4438545,187.43738 L106.656894,187.43738 Z M233.472307,187.43738 L233.472307,114.219653 C233.472307,108.850353 234.602406,104.167469 236.862603,100.171002 C239.122801,96.1745344 242.222937,93.062781 246.163011,90.8357418 C250.103086,88.6087026 254.547123,87.495183 259.495123,87.495183 C262.121839,87.495183 265.26779,87.7087347 268.932975,88.1358382 C272.598161,88.5629416 275.683025,89.2035967 278.187568,90.0578035 L278.187568,90.0578035 L278.187568,46.9508671 C276.171716,46.3407193 274.079506,45.8678548 271.910938,45.5322736 C269.74237,45.1966924 267.558531,45.0289017 265.35942,45.0289017 C257.84579,45.0289017 251.294271,47.3169557 245.704863,51.8930636 C240.115455,56.4691715 236.037937,63.699422 233.472307,73.583815 L233.472307,73.583815 L232.006233,73.583815 L232.006233,46.8593449 L182.892749,46.8593449 L182.892749,187.43738 L233.472307,187.43738 Z M343.794386,189.267823 C354.301251,189.267823 363.372585,186.750963 371.008387,181.717245 C378.64419,176.683526 383.989252,169.682081 387.043573,160.712909 L387.043573,160.712909 L388.509648,160.712909 L388.509648,187.43738 L436.523576,187.43738 L436.523576,46.8593449 L385.944018,46.8593449 L385.944018,125.934489 C386.005104,130.571612 385.195709,134.552826 383.515832,137.878131 C381.835956,141.203436 379.453585,143.766057 376.368721,145.565992 C373.283857,147.365928 369.633943,148.265896 365.41898,148.265896 C359.065992,148.265896 354.133263,146.282916 350.620794,142.316956 C347.108325,138.350996 345.321547,132.890173 345.26046,125.934489 L345.26046,125.934489 L345.26046,46.8593449 L294.680902,46.8593449 L294.680902,136.55106 C294.741989,146.801541 296.803656,155.892742 300.865903,163.824663 C304.92815,171.756583 310.63973,177.98009 318.000644,182.495183 C325.361558,187.010276 333.959472,189.267823 343.794386,189.267823 Z M529.619284,190 C542.630692,190 554.008038,188.032274 563.751322,184.096821 C573.494607,180.161368 581.32894,174.609024 587.254323,167.439788 C593.179706,160.270552 596.936521,151.804753 598.524768,142.042389 L598.524768,142.042389 L552.343433,142.042389 C551.36605,144.666024 549.83889,146.908317 547.761951,148.769268 C545.685013,150.630218 543.195741,152.048812 540.294136,153.025048 C537.392531,154.001285 534.200765,154.489403 530.718839,154.489403 C525.709753,154.489403 521.433703,153.482659 517.890691,151.469171 C514.347678,149.455684 511.629332,146.679512 509.735653,143.140655 C507.841974,139.601798 506.895134,135.574823 506.895134,131.05973 L506.895134,131.05973 L506.894998,128.863562 L598.524768,128.863198 L598.524768,117.148362 C598.524768,105.982659 596.875435,95.945729 593.576768,87.0375723 C590.278101,78.1294155 585.574447,70.5483301 579.465804,64.294316 C573.357162,58.0403019 565.996248,53.265896 557.383063,49.9710983 C548.769877,46.6763006 539.148766,45.0289017 528.519728,45.0289017 C513.981159,45.0289017 501.366813,48.0491329 490.676689,54.0895954 C479.986565,60.1300578 471.709355,68.5806037 465.845058,79.4412331 C459.980762,90.3018626 457.048614,102.992935 457.048614,117.514451 C457.048614,132.646114 459.96549,145.627007 465.799244,156.457129 C471.632997,167.287251 479.971294,175.58526 490.814134,181.351156 C501.656974,187.117052 514.592024,190 529.619284,190 Z M506.895134,101.040462 C507.017307,96.9524727 508.101591,93.3831085 510.147986,90.3323699 C512.194382,87.2816313 514.927999,84.8868015 518.348839,83.1478805 C521.769678,81.4089595 525.526493,80.539499 529.619284,80.539499 C533.834247,80.539499 537.606333,81.4089595 540.935543,83.1478805 C544.264753,84.8868015 546.922013,87.296885 548.907322,90.378131 C550.89263,93.459377 551.915828,97.0134875 551.976914,101.040462 L551.976914,101.040462 L506.895134,101.040462 Z M669.629364,187.43738 L669.629364,105.433526 C669.629364,101.345536 670.316586,97.8219332 671.691031,94.8627168 C673.065475,91.9035003 675.004969,89.6307001 677.509513,88.044316 C680.014056,86.4579319 683.007291,85.6647399 686.489217,85.6647399 C691.742649,85.6647399 695.927069,87.4189146 699.042477,90.927264 C702.157884,94.4356134 703.715588,99.271034 703.715588,105.433526 L703.715588,105.433526 L703.715588,187.43738 L752.096035,187.43738 L752.096035,105.433526 C752.096035,99.271034 753.607924,94.4356134 756.631702,90.927264 C759.655479,87.4189146 763.763541,85.6647399 768.955887,85.6647399 C774.20932,85.6647399 778.39374,87.4189146 781.509147,90.927264 C784.624555,94.4356134 786.182258,99.271034 786.182258,105.433526 L786.182258,105.433526 L786.182258,187.43738 L836.761816,187.43738 L836.761816,92.6204239 C836.761816,78.2209377 832.562125,66.6891458 824.162742,58.0250482 C815.763359,49.3609505 804.813617,45.0289017 791.313518,45.0289017 C780.86774,45.0289017 771.765863,47.6372832 764.007887,52.8540462 C756.249911,58.0708092 751.179738,64.9807322 748.797368,73.583815 L748.797368,73.583815 L747.331294,73.583815 C745.86522,64.9807322 741.558627,58.0708092 734.411515,52.8540462 C727.264404,47.6372832 718.742848,45.0289017 708.846847,45.0289017 C699.07302,45.0289017 690.643094,47.5915222 683.557069,52.716763 C676.471043,57.8420039 671.461957,64.7976879 668.529809,73.583815 L668.529809,73.583815 L667.063734,73.583815 L667.063734,46.8593449 L619.049806,46.8593449 L619.049806,187.43738 L669.629364,187.43738 Z M900.90256,189.633911 C907.011202,189.633911 912.615882,188.901734 917.716598,187.43738 C922.817314,185.973025 927.368253,183.623956 931.369413,180.390173 C935.370574,177.15639 938.776142,172.915864 941.586117,167.668593 L941.586117,167.668593 L942.685673,167.668593 L942.685673,187.43738 L989.966564,187.43738 L989.966564,91.1560694 C989.966564,84.6274888 988.485218,78.5717726 985.522527,72.988921 C982.559835,67.4060694 978.268514,62.5248876 972.648563,58.3453757 C967.028612,54.1658638 960.217476,50.9015735 952.215155,48.5525048 C944.212834,46.2034361 935.172043,45.0289017 925.092783,45.0289017 C911.103993,45.0289017 899.436486,47.2101798 890.090263,51.572736 C880.744041,55.9352922 873.642744,61.7316956 868.786373,68.9619461 C863.930003,76.1921965 861.196385,84.0783558 860.585521,92.6204239 L860.585521,92.6204239 L907.133375,92.6204239 C907.744239,88.2883751 909.56156,85.0698459 912.585338,82.9648362 C915.609116,80.8598266 919.533919,79.8073218 924.359746,79.8073218 C928.757969,79.8073218 932.362068,80.7835581 935.172043,82.7360308 C937.982018,84.6885035 939.387006,87.495183 939.387006,91.1560694 L939.387006,91.1560694 L939.387006,91.522158 C939.387006,94.206808 938.317994,96.3575787 936.179969,97.9744701 C934.041944,99.5913616 930.57529,100.842164 925.780006,101.726879 C920.984721,102.611593 914.647005,103.359024 906.766857,103.969171 C899.497572,104.518304 892.732251,105.708092 886.470893,107.538536 C880.209534,109.368979 874.727028,112.023121 870.023373,115.500963 C865.319719,118.978805 861.654533,123.448137 859.027817,128.90896 C856.401101,134.369782 855.087743,140.944123 855.087743,148.631985 C855.087743,157.967245 857.042509,165.655106 860.95204,171.695568 C864.861571,177.736031 870.252447,182.23587 877.12467,185.195087 C883.996893,188.154303 891.922856,189.633911 900.90256,189.633911 Z M917.395894,157.7842 C913.119845,157.7842 909.607375,156.746949 906.858486,154.672447 C904.109597,152.597945 902.735153,149.608221 902.735153,145.703276 C902.735153,143.262685 903.330745,141.050899 904.521931,139.067919 C905.713116,137.084939 907.545708,135.407033 910.019709,134.0342 C912.493709,132.661368 915.685474,131.669878 919.595005,131.05973 C921.610857,130.754656 923.550351,130.419075 925.413487,130.052987 C927.276623,129.686898 929.048129,129.290302 930.728006,128.863198 C932.407882,128.436095 933.996129,127.978484 935.492747,127.490366 C936.989364,127.002248 938.409623,126.483622 939.753525,125.934489 L939.753525,125.934489 L939.753525,137.649326 C939.753525,141.92036 938.684512,145.550739 936.546488,148.540462 C934.408463,151.530186 931.644302,153.81824 928.254006,155.404624 C924.863709,156.991008 921.244339,157.7842 917.395894,157.7842 Z M1064.73635,187.43738 L1064.73635,108.362235 C1064.79743,103.725112 1065.65264,99.7438985 1067.30198,96.4185934 C1068.95131,93.0932884 1071.31841,90.530668 1074.40327,88.7307322 C1077.48814,86.9307964 1081.10751,86.0308285 1085.26138,86.0308285 C1091.61437,86.0308285 1096.57764,88.0138086 1100.1512,91.9797688 C1103.72475,95.945729 1105.48099,101.406551 1105.4199,108.362235 L1105.4199,187.43738 L1156,187.43738 L1156,96.9435782 C1155.95383,87.0801009 1153.95307,78.2867694 1149.99772,70.5635838 C1145.93547,62.6316635 1140.22389,56.392903 1132.86298,51.8473025 C1125.50206,47.301702 1116.84306,45.0289017 1106.88598,45.0289017 C1096.56237,45.0289017 1087.53685,47.5610148 1079.80942,52.6252408 C1072.08199,57.6894669 1066.69111,64.6756583 1063.63679,73.583815 L1062.17072,73.583815 L1062.17072,46.8593449 L1014.15679,46.8593449 L1014.15679,187.43738 L1064.73635,187.43738 Z" id="Trueman" fill="#131419" fill-rule="nonzero"></path>
    </g>
</svg>